<svg width="24" height="24" viewBox="0 0 24 24" fill="none" xmlns="http://www.w3.org/2000/svg">
<path fill-rule="evenodd" clip-rule="evenodd" d="M21 11.25C21.4142 11.25 21.75 11.5858 21.75 12V21C21.75 21.4142 21.4142 21.75 21 21.75H3C2.58579 21.75 2.25 21.4142 2.25 21V12.0042C2.25 11.5899 2.58579 11.2542 3 11.2542C3.41421 11.2542 3.75 11.5899 3.75 12.0042V20.25H20.25V12C20.25 11.5858 20.5858 11.25 21 11.25Z" fill="black"/>
<path fill-rule="evenodd" clip-rule="evenodd" d="M6.96967 10.9697C7.26256 10.6768 7.73744 10.6768 8.03033 10.9697L12 14.9393L15.9697 10.9697C16.2626 10.6768 16.7374 10.6768 17.0303 10.9697C17.3232 11.2626 17.3232 11.7374 17.0303 12.0303L12.5303 16.5303C12.2374 16.8232 11.7626 16.8232 11.4697 16.5303L6.96967 12.0303C6.67678 11.7374 6.67678 11.2626 6.96967 10.9697Z" fill="black"/>
<path fill-rule="evenodd" clip-rule="evenodd" d="M11.9961 2.25C12.4103 2.25 12.7461 2.58579 12.7461 3V16C12.7461 16.4142 12.4103 16.75 11.9961 16.75C11.5819 16.75 11.2461 16.4142 11.2461 16V3C11.2461 2.58579 11.5819 2.25 11.9961 2.25Z" fill="black"/>
</svg>
