<svg width="135" height="43" viewBox="0 0 135 43" fill="none" xmlns="http://www.w3.org/2000/svg">
<rect x="1" y="1" width="133" height="41" rx="20.5" fill="white"/>
<path d="M59.1127 27.964H52.0387V13.024H59.9047V14.752H53.9827V26.254H59.4727C60.9667 26.254 62.1547 25.93 62.8387 25.318V12.736H64.8007V19.396H67.3567V21.106H64.8007V29.062H62.8387V26.938C62.1727 27.586 60.7687 27.964 59.1127 27.964ZM69.552 15.814C69.552 14.95 69.912 14.302 70.578 13.816C71.73 12.988 73.728 12.718 76.158 12.718C78.57 12.718 80.586 12.988 81.72 13.816C82.386 14.302 82.746 14.95 82.746 15.814C82.746 16.696 82.386 17.344 81.72 17.812C80.586 18.64 78.57 18.928 76.158 18.928C73.728 18.928 71.73 18.64 70.578 17.812C69.912 17.344 69.552 16.696 69.552 15.814ZM71.514 15.814C71.514 16.138 71.676 16.408 71.964 16.606C72.666 17.092 74.178 17.272 76.158 17.272C78.138 17.272 79.632 17.092 80.334 16.606C80.64 16.408 80.802 16.138 80.802 15.814C80.802 15.49 80.64 15.238 80.334 15.04C79.632 14.554 78.138 14.374 76.158 14.374C74.178 14.374 72.666 14.554 71.964 15.04C71.676 15.238 71.514 15.49 71.514 15.814ZM68.778 21.898V20.242H83.484V21.898H68.778ZM82.422 29.224H69.858V23.572H82.422V29.224ZM80.46 27.586V25.228H71.802V27.586H80.46Z" fill="black"/>
<rect x="1" y="1" width="133" height="41" rx="20.5" stroke="black" stroke-width="2"/>
</svg>
