<svg width="192" height="43" viewBox="0 0 192 43" fill="none" xmlns="http://www.w3.org/2000/svg">
<rect x="1" y="1" width="190" height="41" rx="20.5" fill="white"/>
<path d="M61.9278 27.982L57.4818 20.728L61.6398 13.87H59.3718L56.1858 19.216L53.0178 13.87H50.7498L54.8718 20.728L50.4618 27.982H52.7298L56.1858 22.24L59.6418 27.982H61.9278ZM74.2747 12.844V15.634C74.2747 18.46 75.8407 19.9 77.9287 20.548V22.276C75.8767 21.826 74.1667 20.692 73.3207 19.324C72.5467 20.728 70.8187 21.97 68.6947 22.474V20.728C70.8367 20.062 72.3307 18.388 72.3307 15.634V12.844H74.2747ZM82.4827 24.166H80.5207V17.47H76.9567V15.796H80.5207V12.736H82.4827V24.166ZM82.7707 29.134H70.2787V23.59H72.2407V27.442H82.7707V29.134ZM91.212 22.258H86.478V12.934H92.58V14.536H88.368V16.768H92.382V18.37H88.368V20.656H91.464C92.85 20.656 93.75 20.44 94.452 19.954V12.844H96.306V16.732H98.106V12.736H99.996V22.69H98.106V18.442H96.306V22.6H94.452V21.484C93.822 22.006 92.832 22.258 91.212 22.258ZM98.052 29.332V25.534H87.45V23.842H99.996V29.332H98.052ZM109.05 16.138C109.05 15.13 109.41 14.302 110.094 13.708C110.868 13.006 112.02 12.628 113.442 12.628C114.864 12.628 116.034 13.006 116.808 13.708C117.474 14.302 117.834 15.13 117.834 16.138C117.834 17.128 117.474 17.956 116.808 18.55C116.214 19.09 115.404 19.432 114.432 19.558V21.214H116.79C118.266 21.214 119.292 20.944 119.886 20.548V12.736H121.848V17.632H124.242V19.306H121.848V24.688H119.886V22.15C119.22 22.654 118.086 22.924 116.268 22.924H108.528V21.214H112.452V19.558C111.48 19.432 110.688 19.072 110.094 18.55C109.41 17.956 109.05 17.128 109.05 16.138ZM110.94 16.138C110.94 16.642 111.12 17.056 111.444 17.362C111.876 17.776 112.578 17.956 113.442 17.956C114.324 17.956 115.026 17.776 115.44 17.362C115.782 17.056 115.962 16.642 115.962 16.138C115.962 15.616 115.782 15.202 115.44 14.896C115.026 14.5 114.324 14.302 113.442 14.302C112.578 14.302 111.876 14.5 111.444 14.896C111.12 15.202 110.94 15.616 110.94 16.138ZM122.154 29.224H109.806V24.418H111.75V27.532H122.154V29.224ZM128.741 19.054V21.718H139.775V23.41H137.201V26.65H140.423V28.342H125.933V26.65H129.263V23.41H126.779V17.362H137.615V14.752H126.779V13.024H139.577V19.054H128.741ZM135.239 23.41H131.207V26.65H135.239V23.41Z" fill="black"/>
<rect x="1" y="1" width="190" height="41" rx="20.5" stroke="black" stroke-width="2"/>
</svg>
